<svg xmlns="http://www.w3.org/2000/svg" viewBox="0 0 318.97 318.97"><path d="M303.676 253.523c-11.151-37.754-67.121-33.566-91.279-44.408-24.157-10.842-20.386-47.219-23.449-53.548h-58.932c-3.058 6.329.714 42.711-23.449 53.548-24.157 10.842-80.133 6.655-91.279 44.408-6.149 20.824-5.857 27.193-7.554 50.26 0 0 76.8 15.187 150.014 15.187s153.488-15.187 153.488-15.187c-1.703-23.073-1.411-29.435-7.56-50.26z" fill="#ff0001" opacity="0.8"/><path d="M171.125 220.075l37.765-12.832.006-.006c-20.279-12.635-17.036-45.673-19.942-51.682h-58.938c-2.94 6.087.427 39.946-20.779 52.182l.006.006 37.563 12.326 12.624 32.526 11.695-32.52z" fill="#e8c59e"/><path d="M303.676 253.523c-11.151-37.754-67.121-33.566-91.279-44.408-24.157-10.842-20.386-47.219-23.449-53.548h-31.206s-.719 51.024 23.438 61.866 80.133 6.655 91.279 44.408c5.857 19.83 5.868 26.552 7.324 47.073 19.234-2.816 31.442-5.126 31.442-5.126-1.692-23.078-1.4-29.44-7.549-50.265z" fill="#ff0001"/><path d="M180.242 216.978l28.643-9.729.006-.006c-20.279-12.635-17.036-45.673-19.942-51.682h-31.206c.005.006-.697 49.687 22.499 61.417z" fill="#ddb58e"/><path d="M122.085 193.164c9.78 7.959 21.24 15.85 37.338 18.132 16.137-2.288 27.569-10.342 37.36-18.334-8.144-14.973-5.626-32.83-7.83-37.4h-58.938c-2.213 4.575.254 22.623-7.93 37.602z" fill="#cca281"/><path fill="#7f5732" d="M208.89 207.249l-14.209 43.621-23.556-30.795zM109.237 207.749l14.287 43.121 23.275-30.795z"/><path d="M146.799 220.075l-25.72-28.536s-3.389 4.817-11.843 16.21l15.091 37.405 22.472-25.079zM171.125 220.075l25.72-28.536s3.592 4.311 12.045 15.704l-15.294 37.911-22.471-25.079z" fill="#ff0001"/><path d="M176.234 214.41a23.69 23.69 0 004.952 3.024c5.66 2.541 13.062 4.255 21.223 5.874l6.481-16.058c-8.453-11.393-12.045-15.704-12.045-15.704l-20.611 22.864z" fill="#7f5732"/><circle cx="159.485" cy="268.424" r="7.031" fill="#eae5dc"/><circle cx="159.485" cy="293.368" r="7.031" fill="#eae5dc"/><path d="M166.488 318.902c.017-.191.028-.388.028-.585a7.031 7.031 0 10-14.034.624 543.937 543.937 0 0014.006-.039z" fill="#eae5dc"/><ellipse transform="rotate(100.195 228.527 118.562)" cx="228.525" cy="118.563" rx="21.386" ry="11.629" fill="#ddb58e"/><ellipse transform="rotate(169.801 90.268 118.57)" cx="90.267" cy="118.57" rx="11.629" ry="21.386" fill="#e8c59e"/><path d="M223.644 47.371H95.236s-35.989 146.614 64.187 160.806c100.216-14.193 64.221-160.806 64.221-160.806z" fill="#e8c59e"/><path d="M159.423 208.176C259.639 193.984 223.644 47.37 223.644 47.37H208.62c4.114 61.242 9.808 93.774-13.815 129.24-18.717 28.104-35.382 31.566-35.382 31.566z" fill="#ddb58e"/><path d="M234.003 169.501c0-3.895-1.439-7.447-3.816-10.162a15.353 15.353 0 002.968-9.077c0-4.817-2.215-9.105-5.677-11.938h-6.919c.483 1.495.759 3.08.759 4.738 0 8.532-6.919 15.451-15.451 15.451-.444 0-.815-.011-1.242-.051.006.006.011.011.017.022a15.38 15.38 0 00-2.664-.247c-2.777 0-5.373.742-7.627 2.023-2.816-2.99-6.807-4.873-11.241-4.873-4.468 0-8.482 1.905-11.303 4.941-2.816-3.805-7.318-6.278-12.416-6.278-5.092 0-9.6 2.479-12.416 6.278-2.822-3.03-6.835-4.941-11.303-4.941-4.435 0-8.425 1.877-11.241 4.873a15.37 15.37 0 00-7.627-2.023c-.804 0-1.591.079-2.361.197.006-.011.011-.022.022-.028-.427.034-.787.051-1.231.051-8.532 0-15.451-6.919-15.451-15.451 0-1.636.264-3.204.742-4.682h-6.947c-3.462 2.833-5.677 7.116-5.677 11.938 0 3.4 1.113 6.531 2.973 9.083a15.363 15.363 0 00-3.822 10.156c0 5.368 2.737 10.095 6.896 12.866a15.401 15.401 0 00-1.579 6.778c0 8.195 6.385 14.883 14.456 15.4.511 8.071 7.2 14.467 15.406 14.467a15.7 15.7 0 003.232-.343c1.675 6.722 7.734 11.708 14.979 11.708 2.878 0 5.559-.798 7.863-2.17 2.704 4.496 7.61 7.509 13.237 7.509s10.533-3.018 13.237-7.509a15.364 15.364 0 007.863 2.17c7.239 0 13.304-4.985 14.979-11.708 1.045.225 2.125.343 3.232.343 8.2 0 14.889-6.391 15.406-14.467 8.066-.517 14.456-7.206 14.456-15.4 0-2.434-.579-4.727-1.579-6.778 4.13-2.772 6.867-7.498 6.867-12.866zM229.091 36.781C213.522 2.125 183.699 0 159.384 0S105.24 2.125 89.671 36.781c-3.35 7.453-3.535 27.732-3.535 44.487 0 26.316 3.502 33.887 3.502 33.887l6.16 1.647c2.698-22.038 3.721-51.08 3.783-52.845a20.12 20.12 0 0013.152 4.873c3.519 0 6.823-.899 9.707-2.479 3.71 4.53 9.341 7.425 15.659 7.425 3.282 0 6.379-.787 9.122-2.175a20.146 20.146 0 0012.225 4.12c4.598 0 8.83-1.534 12.225-4.12a20.143 20.143 0 009.122 2.175c6.312 0 11.949-2.895 15.659-7.425a20.14 20.14 0 009.707 2.479c4.963 0 9.51-1.793 13.029-4.761.09 2.597 1.124 31.06 3.777 52.738l6.16-1.647s3.502-7.577 3.502-33.887c-.001-16.754-.186-37.039-3.536-44.492z" fill="#000"/></svg>